<svg width="1104" height="113" viewBox="0 0 1104 113" fill="none" xmlns="http://www.w3.org/2000/svg">
<path fill-rule="evenodd" clip-rule="evenodd" d="M1092.81 8.529C1092.51 8.82 1087.83 9.724 1082.39 10.539C1076.95 11.353 1065.97 13.646 1058 15.634C1001.96 29.602 950.434 58.149 912.716 96.133L900.932 108H885.466C876.96 108 870 107.638 870 107.197C870 105.915 889.734 86.967 898.5 79.832C949.364 38.429 1021.53 11.47 1090.42 8.141C1092.02 8.063 1093.1 8.238 1092.81 8.529ZM210.064 69.696C223.504 87.129 235.529 102.879 236.786 104.696L239.072 108H226.743H214.413L208.562 100L202.711 92H169.355C151.01 92 136 91.65 136 91.221C136 90.793 138.815 87.652 142.257 84.241L148.513 78.04L170.355 77.77L192.196 77.5L182.132 64.519L172.068 51.539L174.769 48.519C181.203 41.329 184.446 38 185.017 38C185.352 38 196.624 52.263 210.064 69.696ZM454.244 56.165C472.902 80.08 489.92 102.105 492.169 105.25L494.136 108H481.76H469.385L463.5 100L457.615 92H424.308C405.988 92 391 91.65 391 91.221C391 90.793 393.815 87.652 397.257 84.241L403.513 78.04L425.378 77.77L447.243 77.5L439.839 68C435.768 62.775 431.191 56.853 429.668 54.84L426.9 51.18L433.079 44.575C437.255 40.11 439.621 38.271 440.379 38.9C440.996 39.412 447.235 47.181 454.244 56.165ZM818.044 58C826.344 68.725 836.367 81.722 840.318 86.882C844.268 92.042 849.413 98.649 851.75 101.564C854.087 104.48 856 107.12 856 107.433C856 107.745 850.487 107.972 843.75 107.938L831.5 107.876L825.769 99.951L820.037 92.027L786.269 91.763L752.5 91.5L758.89 84.769L765.281 78.038L787.231 77.769L809.181 77.5L799.149 64.5L789.118 51.5L791.795 48.5C798.771 40.681 801.49 37.997 802.19 38.238C802.609 38.382 809.743 47.275 818.044 58ZM100.671 41.235C102.415 42.189 104.89 44.439 106.171 46.235C108.276 49.186 108.5 50.575 108.5 60.677C108.5 73.18 107.524 75.596 100.895 79.5C97.746 81.355 95.39 81.522 68.317 81.805L39.135 82.11L38.609 84.805C38.32 86.287 38.226 91.1 38.399 95.5C38.914 108.566 39.367 108 28.392 108H19V73.456V38.913L58.25 39.206C93.266 39.468 97.842 39.687 100.671 41.235ZM347.782 40.553C355.956 43.967 358.989 49.366 358.989 60.5C358.989 70.797 356.258 77.155 350.5 80.263C349.4 80.857 344.569 81.83 339.765 82.425L331.03 83.507L345.738 95.503L360.446 107.5L347.192 107.779L333.937 108.058L319.074 95.529L304.211 83H295.605H287V95.5V108H277H267V73.5V39H305.532C338.105 39 344.639 39.24 347.782 40.553ZM541 66V93H573H605V100.5V108L568.75 107.996C534.342 107.993 532.334 107.892 529.241 106.005C527.448 104.912 525.088 102.552 523.995 100.759C522.132 97.704 522.007 95.673 522.004 68.25L522 39H531.5H541V66ZM655 66V93H686.5H718V100.5V108H682.234C642.24 108 641.644 107.905 637.5 100.887C635.652 97.757 635.477 95.388 635.191 69.624C635.021 54.293 635.12 41.13 635.41 40.374C635.806 39.342 638.306 39 645.469 39H655V66ZM914.109 46.75C920.07 51.013 924.952 54.725 924.958 55C924.967 55.448 910.677 65.028 908.81 65.825C908.391 66.004 900.95 60.945 892.274 54.582C873.158 40.562 873 40.439 873 39.64C873 39.288 879.811 39 888.135 39H903.271L914.109 46.75ZM38.287 61L38.499 68H63.714C87.621 68 88.983 67.9 89.965 66.066C91.294 63.582 91.294 58.418 89.965 55.934C88.983 54.1 87.618 54 63.502 54H38.075L38.287 61ZM287 61.483V69H310.935C324.366 69 336.016 68.564 337.483 68.007C339.966 67.063 340.081 66.702 339.798 60.757L339.5 54.5L313.25 54.233L287 53.967V61.483ZM965.086 84.75C973.952 91.213 984.647 98.975 988.853 102L996.5 107.5L979.612 107.775C965.74 108.001 962.304 107.774 960.369 106.506C955.385 103.241 933.002 85.741 933.036 85.136C933.065 84.616 947.958 73.13 948.733 73.03C948.862 73.014 956.22 78.287 965.086 84.75Z" fill="#1E1E1E"/>
</svg>
